<svg width="18" height="18" viewBox="0 0 18 18" fill="none" xmlns="http://www.w3.org/2000/svg">
<path d="M13.9725 5.36251C14.0025 5.82001 13.965 6.33751 13.875 6.91501L13.3275 10.4325C12.8625 13.365 11.505 14.355 8.57249 13.8975L5.05499 13.3425C4.04249 13.185 3.26249 12.915 2.69249 12.51C1.60499 11.7525 1.28999 10.5075 1.58999 8.58751L2.14499 5.07001C2.60999 2.13751 3.96749 1.14751 6.89999 1.60501L10.4175 2.16001C12.7725 2.52751 13.875 3.48751 13.9725 5.36251Z" stroke="#062856" stroke-width="1.5" stroke-linecap="round" stroke-linejoin="round"/>
<path d="M15.375 10.1025L14.25 13.485C13.3125 16.305 11.8125 17.055 8.9925 16.1175L5.61 14.9925C3.9075 14.43 2.9625 13.65 2.6925 12.51C3.2625 12.915 4.0425 13.185 5.055 13.3425L8.5725 13.8975C11.505 14.355 12.8625 13.365 13.3275 10.4325L13.875 6.91499C13.965 6.33749 14.0025 5.81999 13.9725 5.36249C15.765 6.31499 16.155 7.75499 15.375 10.1025Z" stroke="#062856" stroke-width="1.5" stroke-linecap="round" stroke-linejoin="round"/>
<path d="M6.18 6.735C6.90073 6.735 7.485 6.15073 7.485 5.43C7.485 4.70927 6.90073 4.125 6.18 4.125C5.45927 4.125 4.875 4.70927 4.875 5.43C4.875 6.15073 5.45927 6.735 6.18 6.735Z" stroke="#062856" stroke-width="1.5" stroke-linecap="round" stroke-linejoin="round"/>
</svg>
