<svg width="212" height="60" viewBox="0 0 212 60" fill="none" xmlns="http://www.w3.org/2000/svg">
<path d="M73.1034 36.3154H29.9704V37.965L30.6454 39.4205H72.5296L73.1034 37.965V36.3154Z" fill="#093F88"/>
<path d="M122.851 36.3154H79.7185V37.965L80.3935 39.4205H122.278L122.851 37.965V36.3154Z" fill="#093F88"/>
<path d="M162.204 36.3154H119.071V37.965L119.746 39.4205H161.631L162.204 37.965V36.3154Z" fill="#093F88"/>
<path d="M203.853 36.3154H160.719V37.965L161.394 39.4205H203.279L203.853 37.965V36.3154Z" fill="#093F88"/>
<path d="M42.7009 18.8229V33.5676H38.7555V21.9907H33.7734V33.5676H29.828V18.8229H42.7009Z" fill="#B1441F"/>
<path d="M44.859 22.0483V18.8229H57.6742V22.0483H53.2393V33.5676H49.2939V22.0483H44.859Z" fill="#B1441F"/>
<path d="M68.2666 33.5676L63.7453 27.6064H63.1837V33.5676H59.1807V18.8229H63.1837V24.381H63.7021L67.9354 18.8229H72.9752L67.3595 25.9073L73.2919 33.5676H68.2666Z" fill="#B1441F"/>
<path d="M90.7112 18.8229V33.5677H88.9257V20.4068H81.4957V33.5677H79.7102V18.8229H90.7112Z" fill="#093F88"/>
<path d="M94.3128 33.5677V18.8229H103.211V20.4068H96.0983V25.3889H102.751V26.9729H96.0983V31.9838H103.327V33.5677H94.3128Z" fill="#093F88"/>
<path d="M106.43 33.5677V18.8229H108.215V25.3889H116.077V18.8229H117.863V33.5677H116.077V26.9729H108.215V33.5677H106.43Z" fill="#093F88"/>
<path d="M133.878 26.1953C133.878 27.7504 133.597 29.0943 133.036 30.2271C132.474 31.3598 131.704 32.2334 130.725 32.8477C129.746 33.4621 128.627 33.7693 127.37 33.7693C126.112 33.7693 124.994 33.4621 124.015 32.8477C123.036 32.2334 122.265 31.3598 121.704 30.2271C121.142 29.0943 120.861 27.7504 120.861 26.1953C120.861 24.6402 121.142 23.2963 121.704 22.1635C122.265 21.0308 123.036 20.1572 124.015 19.5429C124.994 18.9285 126.112 18.6213 127.37 18.6213C128.627 18.6213 129.746 18.9285 130.725 19.5429C131.704 20.1572 132.474 21.0308 133.036 22.1635C133.597 23.2963 133.878 24.6402 133.878 26.1953ZM132.15 26.1953C132.15 24.9186 131.937 23.841 131.509 22.9627C131.087 22.0843 130.513 21.4196 129.789 20.9684C129.069 20.5172 128.262 20.2916 127.37 20.2916C126.477 20.2916 125.668 20.5172 124.943 20.9684C124.223 21.4196 123.65 22.0843 123.223 22.9627C122.8 23.841 122.589 24.9186 122.589 26.1953C122.589 27.472 122.8 28.5496 123.223 29.4279C123.65 30.3063 124.223 30.971 124.943 31.4222C125.668 31.8734 126.477 32.099 127.37 32.099C128.262 32.099 129.069 31.8734 129.789 31.4222C130.513 30.971 131.087 30.3063 131.509 29.4279C131.937 28.5496 132.15 27.472 132.15 26.1953Z" fill="#093F88"/>
<path d="M147.91 18.8229V33.5677H146.125V20.4068H138.695V33.5677H136.909V18.8229H147.91Z" fill="#093F88"/>
<path d="M150.245 33.5677V31.9262H150.677C151.291 31.9262 151.768 31.7294 152.109 31.3358C152.45 30.9422 152.695 30.3063 152.844 29.4279C152.997 28.5496 153.1 27.3856 153.153 25.9361L153.412 18.8229H162.397V33.5677H160.612V20.4068H155.111L154.881 26.2817C154.823 27.8272 154.682 29.1423 154.456 30.2271C154.231 31.3118 153.835 32.1398 153.268 32.7109C152.702 33.2821 151.876 33.5677 150.792 33.5677H150.245Z" fill="#093F88"/>
<path d="M166.57 33.5677H164.698L170.112 18.8229H171.955L177.369 33.5677H175.497L171.091 21.1556H170.976L166.57 33.5677ZM167.261 27.808H174.806V29.3919H167.261V27.808Z" fill="#093F88"/>
<path d="M190.838 23.4307H189.052C188.947 22.9171 188.762 22.4659 188.498 22.0771C188.239 21.6884 187.922 21.362 187.547 21.098C187.178 20.8292 186.767 20.6276 186.316 20.4932C185.865 20.3588 185.395 20.2916 184.905 20.2916C184.012 20.2916 183.204 20.5172 182.479 20.9684C181.759 21.4196 181.185 22.0843 180.758 22.9627C180.336 23.841 180.125 24.9186 180.125 26.1953C180.125 27.472 180.336 28.5496 180.758 29.4279C181.185 30.3063 181.759 30.971 182.479 31.4222C183.204 31.8734 184.012 32.099 184.905 32.099C185.395 32.099 185.865 32.0318 186.316 31.8974C186.767 31.763 187.178 31.5638 187.547 31.2998C187.922 31.031 188.239 30.7022 188.498 30.3135C188.762 29.9199 188.947 29.4687 189.052 28.9599H190.838C190.703 29.7135 190.458 30.3879 190.103 30.983C189.748 31.5782 189.306 32.0846 188.779 32.5021C188.251 32.9149 187.658 33.2293 187 33.4453C186.347 33.6613 185.649 33.7693 184.905 33.7693C183.648 33.7693 182.529 33.4621 181.55 32.8477C180.571 32.2334 179.801 31.3598 179.239 30.2271C178.677 29.0943 178.397 27.7504 178.397 26.1953C178.397 24.6402 178.677 23.2963 179.239 22.1635C179.801 21.0308 180.571 20.1572 181.55 19.5429C182.529 18.9285 183.648 18.6213 184.905 18.6213C185.649 18.6213 186.347 18.7293 187 18.9453C187.658 19.1613 188.251 19.4781 188.779 19.8957C189.306 20.3084 189.748 20.8124 190.103 21.4076C190.458 21.9979 190.703 22.6723 190.838 23.4307Z" fill="#093F88"/>
<path d="M192.916 20.4068V18.8229H203.975V20.4068H199.339V33.5677H197.553V20.4068H192.916Z" fill="#093F88"/>
<path d="M18.742 31.7577C18.8821 29.9407 18.8952 28.9223 18.5535 27.1074L21.3186 27.673V31.7577C20.9249 32.4519 20.3943 32.49 18.742 31.7577Z" fill="#093F88"/>
<path d="M7.11621 32.8261C7.72822 30.0595 8.32258 28.4885 9.69274 25.662L12.2064 26.1019C10.9551 28.6037 10.4072 30.1475 9.69274 33.1403C8.66297 33.786 8.09434 33.8624 7.11621 32.8261Z" fill="#093F88"/>
<path d="M28.2312 23.0855C33.2331 20.7583 31.499 17.3669 25.0263 11.1455L24.0208 15.3559C27.3957 18.6676 28.8151 19.3464 27.1 19.9434L27.4771 21.7658L28.2312 23.0855Z" fill="#093F88"/>
<path d="M3.75536 15.4958C2.67178 11.4384 4.16897 10.3269 10.1531 9.53364C10.2359 9.52266 10.3087 9.59386 10.2963 9.67645L9.83384 12.7401C9.82488 12.7994 9.77389 12.8442 9.71392 12.8471C7.32395 12.9626 6.60486 13.2944 6.90452 14.4546C6.91759 14.5052 6.90001 14.5597 6.85819 14.5911L6.43401 14.9092C6.42798 14.9138 6.42155 14.9177 6.4148 14.9211L5.68774 15.2846C5.67653 15.2902 5.66455 15.2941 5.65219 15.2962L3.89738 15.5887C3.83385 15.5992 3.77197 15.558 3.75536 15.4958Z" fill="#093F88"/>
<path d="M20.5016 0.446435C21.6233 0.179753 22.1027 0.333809 22.4497 1.64044C21.635 1.24655 21.2052 0.989522 20.5016 0.446435Z" fill="#093F88"/>
<path d="M18.3165 0.300971C16.7996 -0.269846 16.0716 -0.0430277 15.1425 2.01127C15.9658 0.940864 16.5417 0.451269 18.3165 0.300971Z" fill="#093F88"/>
<path d="M23.3573 20.509L26.2622 3.47581C26.2738 3.40782 26.2284 3.34318 26.1605 3.33098L12.08 0.798954C12.0112 0.786583 11.9455 0.832717 11.9338 0.90163L7.82848 25.0984C7.81688 25.1668 7.86284 25.2316 7.9312 25.2433L22.0116 27.6518C22.08 27.6635 22.145 27.6175 22.1567 27.549L22.4785 25.662" stroke="#093F88" stroke-width="1.25685"/>
<path d="M9.84468 32.4753C10.7732 33.4099 10.6783 33.9175 9.63753 34.6004C9.53111 34.6702 9.57699 34.8459 9.70353 34.8596C10.1389 34.9068 10.3453 35.0462 10.384 35.4654C10.384 36.5966 8.93864 36.4081 7.93314 36.7851L4.42489 37.8501C4.41763 37.8523 4.40998 37.8539 4.40244 37.8548C2.18421 38.1063 1.20891 37.7255 1.14618 36.4081C1.14618 34.8409 1.94052 34.4649 3.58467 34.2105C3.59277 34.2092 3.6013 34.2088 3.60949 34.2091C4.88455 34.2645 5.72547 34.4276 6.88715 34.833C7.02512 34.8812 7.12987 34.6902 7.01297 34.6025L6.00098 33.8435C5.99041 33.8356 5.98096 33.8258 5.9734 33.8149C5.43362 33.0416 5.45429 32.6762 5.97246 32.1476C5.98066 32.1392 5.99031 32.1318 6.00056 32.1261C6.42966 31.8886 6.7625 31.8379 7.41533 31.821C7.42523 31.8207 7.4353 31.8216 7.44497 31.8237L8.19324 31.984C8.25875 31.9981 8.32375 31.9583 8.34102 31.8935L8.52317 31.2105C8.54324 31.1352 8.4904 31.0599 8.41279 31.0533C7.206 30.951 6.57247 31.0059 5.73366 31.4435C4.744 32.0607 4.64259 32.5572 5.02269 33.5088C5.05825 33.5978 4.98729 33.6946 4.89176 33.6868C1.95283 33.4458 0.0763876 34.1914 0.0150186 36.0939C-0.11066 37.9791 0.517772 38.4819 3.21997 38.8589C5.35662 39.0474 6.04788 37.7278 8.12167 37.6021C10.1102 37.4816 10.3653 37.361 10.3829 37.3513L10.3851 37.3499C10.9999 36.9187 11.5336 35.8541 10.9275 34.6628C10.9038 34.6162 10.9095 34.5593 10.943 34.5191C11.6341 33.6875 11.6917 33.093 9.85472 31.4754C9.83185 31.4553 9.80161 31.4435 9.77115 31.4435H9.599C9.54289 31.4435 9.49357 31.4807 9.47816 31.5347L9.28948 32.195C9.2696 32.2646 9.31243 32.3366 9.38307 32.3523L9.78286 32.4411C9.80608 32.4463 9.82791 32.4584 9.84468 32.4753Z" fill="#093F88"/>
<path d="M18.7301 30.7441C17.5965 31.4154 17.5607 31.9305 18.3965 32.8531C18.4819 32.9474 18.3934 33.1059 18.2675 33.0874C17.8342 33.0236 17.5994 33.1067 17.4566 33.5027C17.1723 34.5976 18.6186 34.7784 19.4971 35.396L22.6251 37.3085C22.6316 37.3125 22.6386 37.3159 22.6457 37.3186C24.7295 38.1196 25.7692 37.9961 26.161 36.7367C26.5549 35.2199 25.8805 34.6563 24.3531 33.9969C24.3455 33.9936 24.3374 33.991 24.3294 33.9893C23.0813 33.7225 22.2264 33.669 21.0001 33.7694C20.8545 33.7814 20.8011 33.5702 20.9363 33.5147L22.1065 33.0344C22.1188 33.0294 22.1304 33.0222 22.1404 33.0137C22.8572 32.4008 22.929 32.042 22.5604 31.4C22.5545 31.3899 22.547 31.3803 22.5385 31.3722C22.1829 31.0345 21.8735 30.9017 21.2459 30.7213C21.2364 30.7186 21.2264 30.7169 21.2165 30.7165L20.4519 30.6837C20.385 30.6808 20.3321 30.6259 20.3317 30.5589L20.327 29.852C20.3265 29.7741 20.3966 29.7145 20.4733 29.7277C21.6671 29.9319 22.2665 30.1442 22.9684 30.7786C23.7712 31.6247 23.7446 32.1307 23.1375 32.9562C23.0808 33.0335 23.1251 33.145 23.2195 33.1615C26.1247 33.6668 27.7535 34.8601 27.3348 36.7169C26.9827 38.5732 26.2481 38.9019 23.5378 38.5877C21.4224 38.2332 21.085 36.7822 19.1093 36.1394C17.2149 35.523 16.9983 35.3422 16.9837 35.3284L16.9819 35.3264C16.4952 34.7546 16.2462 33.59 17.1322 32.5893C17.1669 32.5502 17.1756 32.4936 17.1534 32.4463C16.6934 31.4676 16.787 30.8778 18.9716 29.7738C18.9988 29.7601 19.031 29.7563 19.0605 29.7639L19.2271 29.8072C19.2814 29.8213 19.3198 29.8697 19.3212 29.9258L19.3379 30.6124C19.3396 30.6847 19.2801 30.7436 19.2078 30.741L18.7985 30.7266C18.7747 30.7257 18.7505 30.732 18.7301 30.7441Z" fill="#093F88"/>
<path d="M3.18728 17.1649C2.59729 16.6344 2.79242 15.5742 3.51705 14.7012C3.57861 14.627 3.69558 14.6532 3.72432 14.7452L3.95546 15.4848C3.9672 15.5224 3.96035 15.5632 3.93853 15.596C3.69601 15.9601 3.67455 16.2797 3.99025 16.6266C4.01863 16.6578 4.06179 16.6706 4.10313 16.6624L4.37075 16.6088C4.50514 16.582 4.59004 16.7747 4.49243 16.8709C4.23962 17.1201 4.11369 17.3821 4.03885 17.7961C4.03758 17.8031 4.03565 17.8103 4.03325 17.817C3.686 18.7843 3.66105 19.2824 4.04805 19.6698C4.13836 19.7602 4.0839 19.9434 3.95612 19.9434H3.45574C3.4253 19.9434 3.39589 19.9545 3.37298 19.9745L3.04393 20.2624C2.97743 20.3206 2.87324 20.2938 2.84305 20.2108L2.67785 19.7565C2.66324 19.7163 2.67033 19.6713 2.69581 19.637C3.23931 18.9049 3.26002 18.498 2.3402 18.498C1.40163 18.498 1.67766 19.8679 2.33169 20.6869C2.33735 20.694 2.34229 20.7017 2.3464 20.7098C2.55264 21.1159 2.81418 21.2626 3.38768 21.445C3.40133 21.4494 3.41594 21.4514 3.43024 21.4508C3.73275 21.4377 3.85124 21.381 4.03694 21.2631C4.90596 20.7071 5.1681 19.9434 5.79652 19.4407C6.38128 18.9729 5.86288 20.2298 5.44746 21.0803C5.40635 21.1644 5.46733 21.2631 5.56101 21.2631H5.74747C5.77901 21.2631 5.80974 21.251 5.83266 21.2294C6.57145 20.5303 6.72507 19.7986 7.18851 19.385C7.26161 19.3198 7.36758 19.3774 7.36758 19.4754V19.7795C7.36758 19.8976 7.51536 19.9491 7.58767 19.8557C8.74058 18.3659 8.8051 17.4907 6.85925 16.2609C6.76658 16.2023 6.78406 16.0599 6.88923 16.0289L7.58151 15.8253C7.63963 15.8082 7.67743 15.7511 7.66961 15.6911C7.48289 14.256 6.63103 14.3299 4.59119 15.2154C4.50788 15.2516 4.41399 15.191 4.41399 15.1002V14.5031C4.41399 14.4494 4.44811 14.4016 4.49891 14.3842L6.57619 13.672C6.60046 13.6636 6.62734 13.6631 6.652 13.6702C8.41798 14.1779 8.90681 14.6587 8.21675 16.0463C8.19726 16.0854 8.19899 16.1337 8.22159 16.1711C9.56621 18.4003 9.41769 19.5436 6.92768 21.2631C5.69902 22.3158 5.04171 22.796 4.46607 22.2C4.43319 22.166 4.38426 22.1503 4.33821 22.1613C2.59262 22.5788 1.79908 22.2447 1.02051 19.9434C0.713142 18.591 1.69068 17.7165 2.82954 17.7998C2.87635 17.8032 2.92212 17.7823 2.94816 17.7432L3.21509 17.3428C3.25282 17.2862 3.23785 17.2103 3.18728 17.1649Z" fill="#093F88"/>
<path d="M27.238 24.2679C28.027 24.3509 28.6839 23.4962 28.8472 22.3734C28.8611 22.2781 28.7633 22.2087 28.6757 22.2489L27.9716 22.5724C27.9358 22.5889 27.9101 22.6213 27.9004 22.6595C27.7922 23.0834 27.5693 23.3133 27.1002 23.311C27.058 23.3108 27.0196 23.2874 26.998 23.2512L26.8586 23.0165C26.7886 22.8987 26.5886 22.9647 26.5825 23.1016C26.5667 23.4562 26.4564 23.7252 26.199 24.058C26.1946 24.0636 26.1905 24.0699 26.1872 24.0761C25.7012 24.9817 25.3479 25.3337 24.801 25.3056C24.6734 25.299 24.5738 25.4622 24.6593 25.5571L24.9943 25.9288C25.0147 25.9514 25.0262 25.9806 25.0267 26.0111L25.0331 26.4482C25.0344 26.5366 25.1241 26.596 25.206 26.5629L25.654 26.3814C25.6936 26.3654 25.7223 26.33 25.7308 26.2881C25.9107 25.3942 26.199 25.1064 26.8148 25.7897C27.4432 26.4868 26.2409 27.199 25.1947 27.2615C25.1856 27.262 25.1765 27.2635 25.1678 27.2659C24.7281 27.3846 24.444 27.2886 23.9245 26.9847C23.9122 26.9774 23.9009 26.9679 23.8918 26.9569C23.6989 26.7235 23.6617 26.5975 23.625 26.3806C23.4561 25.3629 23.8479 24.6568 23.8006 23.8534C23.7566 23.1059 23.17 24.3325 22.8164 25.2105C22.7814 25.2974 22.6673 25.3181 22.6046 25.2485L22.4797 25.11C22.4586 25.0866 22.447 25.0557 22.4478 25.0242C22.4724 24.0074 22.9131 23.4033 22.9099 22.7822C22.9095 22.6843 22.7957 22.6441 22.7229 22.7097L22.4971 22.9133C22.4093 22.9924 22.2721 22.9171 22.2931 22.8009C22.6278 20.9471 23.2347 20.3131 25.451 20.9351C25.5565 20.9648 25.6507 20.8564 25.6032 20.7576L25.291 20.107C25.2647 20.0524 25.2818 19.9861 25.3317 19.9517C26.5226 19.1296 27.0381 19.8118 27.746 21.9199C27.775 22.006 27.8829 22.0351 27.9503 21.9743L28.3938 21.5746C28.4337 21.5386 28.4464 21.4813 28.4253 21.4319L27.5635 19.4121C27.5535 19.3884 27.5359 19.3681 27.5141 19.3546C25.9546 18.3827 25.2702 18.3416 24.7015 19.7831C24.6855 19.8238 24.6485 19.8548 24.6055 19.8631C22.0495 20.3568 21.2997 21.2326 21.6896 24.2334C21.7302 25.8509 21.8136 26.6606 22.6417 26.6891C22.689 26.6908 22.7334 26.7166 22.7561 26.7582C23.6125 28.3303 24.3901 28.6982 26.6076 27.745C26.6188 27.7402 26.6298 27.7334 26.6391 27.7256C27.9493 26.623 27.8323 25.7276 27.0063 24.9584C26.972 24.9264 26.9569 24.8782 26.9685 24.8327L27.0872 24.3663C27.104 24.3004 27.1703 24.2608 27.238 24.2679Z" fill="#093F88"/>
<path d="M16.4797 11.1455C15.4301 9.65497 15.4749 8.9211 17.9879 8.00342H18.1136C20.1559 8.96751 20.4729 9.71408 19.3704 11.4597" stroke="#093F88" stroke-width="0.377053"/>
<path d="M18.365 5.42686C17.1724 2.91615 14.1617 3.35202 14.1546 6.42138C14.1545 6.42849 14.1552 6.43597 14.1564 6.44297C14.3798 7.74072 14.766 8.49686 15.8388 9.03484C15.8841 9.05752 15.9387 9.04976 15.9767 9.01633C16.5942 8.47306 17.0228 8.19455 17.9251 7.81486M18.365 5.42686L18.3051 5.60639C18.3031 5.61238 18.3006 5.61828 18.2978 5.62391C17.9815 6.24587 17.9029 6.73165 17.9251 7.81486M18.365 5.42686C19.9941 3.60975 21.5607 3.66692 22.3174 5.90983C22.3217 5.92263 22.324 5.93648 22.324 5.94999V6.87223C22.1391 8.29011 21.3288 8.90257 19.9538 9.24086C19.9051 9.25284 19.8538 9.23396 19.8235 9.19402C19.228 8.40844 18.8146 8.16436 18.0508 7.87771L17.9251 7.81486" stroke="#093F88" stroke-width="0.502738"/>
<path d="M15.7256 15.2931C17.1065 16.5018 17.9611 16.5855 19.6218 15.7333C17.942 16.209 17.09 16.1144 15.7256 15.2931Z" fill="#093F88"/>
<path d="M13.589 11.334C13.3511 10.9495 13.1629 10.8279 12.772 10.7056L14.7201 11.0198C14.3008 11.0857 14.1248 11.138 13.966 11.2711L14.0917 12.0881C14.4059 13.9105 17.2149 14.9852 18.9934 14.6646C20.7719 14.344 21.2233 14.0531 21.3186 12.0881C21.1776 11.9083 20.9685 11.8133 20.5016 11.6482L22.324 11.5854C21.9606 11.7434 21.8278 11.8511 21.7585 12.0881C21.2483 14.5986 20.4449 15.3158 17.9879 15.2302C15.4621 14.917 13.966 14.2247 13.6518 12.4651L13.589 11.334Z" fill="#093F88"/>
<circle cx="16.7939" cy="6.80938" r="0.816949" fill="#093F88"/>
<circle cx="19.6847" cy="7.1864" r="0.816949" fill="#093F88"/>
<ellipse cx="27.9017" cy="15.3972" rx="1.76797" ry="0.192504" transform="rotate(48.1327 27.9017 15.3972)" fill="#E5E5E5"/>
<ellipse cx="8.78143" cy="29.0268" rx="0.188527" ry="0.502738" transform="rotate(19.5047 8.78143 29.0268)" fill="#E5E5E5"/>
<ellipse cx="21.0066" cy="29.3649" rx="0.122271" ry="0.370424" transform="rotate(0.88032 21.0066 29.3649)" fill="#E5E5E5"/>
<path d="M0 57.83V50H6.57065V57.83H5.50278V50.6823L5.7643 50.9732H0.806348L1.07876 50.6823V57.83H0Z" fill="#13276D"/>
<path d="M11.8369 57.8971C11.3574 57.8971 10.9179 57.7852 10.5184 57.5615C10.1261 57.3304 9.81009 56.9911 9.57036 56.5436C9.3379 56.0962 9.22167 55.5369 9.22167 54.8658C9.22167 54.1946 9.33427 53.6353 9.55947 53.1879C9.79193 52.7405 10.1043 52.4049 10.4966 52.1812C10.8961 51.9575 11.3429 51.8456 11.8369 51.8456C12.4035 51.8456 12.9047 51.9724 13.3406 52.226C13.7765 52.4795 14.1215 52.8337 14.3758 53.2886C14.63 53.736 14.7571 54.2617 14.7571 54.8658C14.7571 55.4698 14.63 55.9993 14.3758 56.4541C14.1215 56.909 13.7765 57.2632 13.3406 57.5168C12.9047 57.7703 12.4035 57.8971 11.8369 57.8971ZM8.77491 60V51.9016H9.7774V53.5011L9.71202 54.877L9.82098 56.2528V60H8.77491ZM11.7497 56.9575C12.1202 56.9575 12.4507 56.8717 12.7413 56.7002C13.0391 56.5287 13.2716 56.2864 13.4387 55.9732C13.613 55.6525 13.7002 55.2834 13.7002 54.8658C13.7002 54.4407 13.613 54.0753 13.4387 53.7696C13.2716 53.4564 13.0391 53.214 12.7413 53.0425C12.4507 52.871 12.1202 52.7852 11.7497 52.7852C11.3865 52.7852 11.0559 52.871 10.7581 53.0425C10.4675 53.214 10.2351 53.4564 10.0607 53.7696C9.89363 54.0753 9.81009 54.4407 9.81009 54.8658C9.81009 55.2834 9.89363 55.6525 10.0607 55.9732C10.2351 56.2864 10.4675 56.5287 10.7581 56.7002C11.0559 56.8717 11.3865 56.9575 11.7497 56.9575Z" fill="#13276D"/>
<path d="M18.7505 57.8971C18.1693 57.8971 17.6536 57.7666 17.2032 57.5056C16.7528 57.2446 16.3968 56.8867 16.1353 56.4318C15.8738 55.9694 15.743 55.4474 15.743 54.8658C15.743 54.2767 15.8738 53.7547 16.1353 53.2998C16.3968 52.8449 16.7528 52.4907 17.2032 52.2371C17.6536 51.9761 18.1693 51.8456 18.7505 51.8456C19.3244 51.8456 19.8365 51.9761 20.2869 52.2371C20.7446 52.4907 21.1005 52.8449 21.3548 53.2998C21.6163 53.7472 21.7471 54.2692 21.7471 54.8658C21.7471 55.4549 21.6163 55.9769 21.3548 56.4318C21.1005 56.8867 20.7446 57.2446 20.2869 57.5056C19.8365 57.7666 19.3244 57.8971 18.7505 57.8971ZM18.7505 56.9575C19.121 56.9575 19.4515 56.8717 19.7421 56.7002C20.0399 56.5287 20.2724 56.2864 20.4395 55.9732C20.6065 55.6525 20.6901 55.2834 20.6901 54.8658C20.6901 54.4407 20.6065 54.0753 20.4395 53.7696C20.2724 53.4564 20.0399 53.214 19.7421 53.0425C19.4515 52.871 19.121 52.7852 18.7505 52.7852C18.38 52.7852 18.0495 52.871 17.7589 53.0425C17.4683 53.214 17.2359 53.4564 17.0615 53.7696C16.8872 54.0753 16.8 54.4407 16.8 54.8658C16.8 55.2834 16.8872 55.6525 17.0615 55.9732C17.2359 56.2864 17.4683 56.5287 17.7589 56.7002C18.0495 56.8717 18.38 56.9575 18.7505 56.9575Z" fill="#13276D"/>
<path d="M23.2576 57.83V51.9016H24.3037V56.2192L27.8451 51.9016H28.7931V57.83H27.747V53.5123L24.2165 57.83H23.2576Z" fill="#13276D"/>
<path d="M32.4167 57.9083C32.9252 57.9083 33.3756 57.8337 33.7679 57.6846C34.1674 57.528 34.4834 57.3154 34.7159 57.047C34.9483 56.7711 35.0646 56.4541 35.0646 56.0962C35.0646 55.6488 34.8793 55.2946 34.5088 55.0336C34.1384 54.7726 33.6299 54.6421 32.9833 54.6421L32.9397 54.8993C33.3175 54.8993 33.6516 54.8359 33.9422 54.7092C34.2328 54.5824 34.4653 54.4109 34.6396 54.1946C34.8139 53.9709 34.9011 53.7174 34.9011 53.434C34.9011 53.0984 34.7849 52.8076 34.5524 52.5615C34.3272 52.3154 34.0185 52.129 33.6262 52.0022C33.2339 51.868 32.7872 51.8084 32.2859 51.8233C31.9518 51.8307 31.614 51.8829 31.2726 51.9799C30.9384 52.0694 30.597 52.1999 30.2483 52.3714L30.5316 53.2103C30.844 53.0537 31.1491 52.9381 31.4469 52.8635C31.752 52.789 32.0498 52.7479 32.3404 52.7405C32.6383 52.7405 32.8961 52.774 33.1141 52.8412C33.3393 52.9083 33.5136 53.0052 33.6371 53.132C33.7606 53.2588 33.8224 53.4116 33.8224 53.5906C33.8224 53.7547 33.7679 53.9001 33.6589 54.0268C33.5572 54.1462 33.4119 54.2356 33.223 54.2953C33.0342 54.355 32.8126 54.3848 32.5584 54.3848H31.5777V55.1566H32.6237C33.0523 55.1566 33.3865 55.2312 33.6262 55.3803C33.8659 55.5295 33.9858 55.742 33.9858 56.0179C33.9858 56.2118 33.9204 56.3833 33.7897 56.5324C33.6589 56.6741 33.47 56.786 33.223 56.868C32.9833 56.95 32.6964 56.9911 32.3622 56.9911C31.999 56.9911 31.6394 56.9426 31.2835 56.8456C30.9275 56.7412 30.6115 56.5996 30.3354 56.4206L30.0194 57.2371C30.3463 57.4534 30.7168 57.6212 31.1309 57.7405C31.5522 57.8523 31.9808 57.9083 32.4167 57.9083Z" fill="#13276D"/>
<path d="M36.6549 57.83V51.9016H39.3354C40.011 51.9016 40.5413 52.0358 40.9263 52.3043C41.3186 52.5652 41.5148 52.9381 41.5148 53.4228C41.5148 53.9075 41.3295 54.2841 40.959 54.5526C40.5958 54.8136 40.1127 54.9441 39.5098 54.9441L39.6732 54.6532C40.3634 54.6532 40.8755 54.7837 41.2097 55.0447C41.5438 55.3057 41.7109 55.6898 41.7109 56.1969C41.7109 56.7114 41.522 57.1141 41.1443 57.4049C40.7738 57.6883 40.2035 57.83 39.4335 57.83H36.6549ZM37.6792 57.0022H39.3572C39.7931 57.0022 40.12 56.9351 40.3379 56.8009C40.5559 56.6592 40.6648 56.4355 40.6648 56.1298C40.6648 55.8166 40.5631 55.5891 40.3597 55.4474C40.1636 55.2983 39.8512 55.2237 39.4226 55.2237H37.6792V57.0022ZM37.6792 54.4519H39.2483C39.6478 54.4519 39.9493 54.3773 40.1527 54.2282C40.3634 54.0716 40.4687 53.8553 40.4687 53.5794C40.4687 53.296 40.3634 53.0835 40.1527 52.9418C39.9493 52.8001 39.6478 52.7293 39.2483 52.7293H37.6792V54.4519Z" fill="#13276D"/>
<path d="M45.8217 57.8971C45.2406 57.8971 44.7248 57.7666 44.2744 57.5056C43.824 57.2446 43.4681 56.8867 43.2065 56.4318C42.945 55.9694 42.8143 55.4474 42.8143 54.8658C42.8143 54.2767 42.945 53.7547 43.2065 53.2998C43.4681 52.8449 43.824 52.4907 44.2744 52.2371C44.7248 51.9761 45.2406 51.8456 45.8217 51.8456C46.3956 51.8456 46.9078 51.9761 47.3581 52.2371C47.8158 52.4907 48.1718 52.8449 48.426 53.2998C48.6875 53.7472 48.8183 54.2692 48.8183 54.8658C48.8183 55.4549 48.6875 55.9769 48.426 56.4318C48.1718 56.8867 47.8158 57.2446 47.3581 57.5056C46.9078 57.7666 46.3956 57.8971 45.8217 57.8971ZM45.8217 56.9575C46.1922 56.9575 46.5227 56.8717 46.8133 56.7002C47.1112 56.5287 47.3436 56.2864 47.5107 55.9732C47.6778 55.6525 47.7613 55.2834 47.7613 54.8658C47.7613 54.4407 47.6778 54.0753 47.5107 53.7696C47.3436 53.4564 47.1112 53.214 46.8133 53.0425C46.5227 52.871 46.1922 52.7852 45.8217 52.7852C45.4512 52.7852 45.1207 52.871 44.8301 53.0425C44.5396 53.214 44.3071 53.4564 44.1328 53.7696C43.9584 54.0753 43.8712 54.4407 43.8712 54.8658C43.8712 55.2834 43.9584 55.6525 44.1328 55.9732C44.3071 56.2864 44.5396 56.5287 44.8301 56.7002C45.1207 56.8717 45.4512 56.9575 45.8217 56.9575Z" fill="#13276D"/>
<path d="M54.2308 57.3266V52.8412H51.7246L51.6701 53.9821C51.6556 54.355 51.6302 54.7166 51.5939 55.0671C51.5648 55.4101 51.514 55.7271 51.4413 56.0179C51.3759 56.3087 51.2779 56.5474 51.1471 56.7338C51.0163 56.9202 50.842 57.0358 50.6241 57.0805L49.5889 56.8904C49.8141 56.8978 49.9957 56.8233 50.1337 56.6667C50.2717 56.5026 50.3771 56.2789 50.4497 55.9955C50.5296 55.7122 50.5877 55.3915 50.6241 55.0336C50.6604 54.6682 50.6894 54.2916 50.7112 53.9038L50.7984 51.9016H55.2769V57.3266H54.2308ZM49.3601 59.2058V56.8904H56.1595V59.2058H55.1788V57.83H50.3516V59.2058H49.3601Z" fill="#13276D"/>
<path d="M57.5223 57.83V51.9016H58.5684V56.2192L62.1098 51.9016H63.0578V57.83H62.0117V53.5123L58.4812 57.83H57.5223Z" fill="#13276D"/>
<path d="M65.0882 57.83V51.9016H66.167L68.6514 56.2864H68.2155L70.7653 51.9016H71.746V57.83H70.798V53.1096L70.9724 53.2103L68.6405 57.1588H68.1828L65.8401 53.132L66.0471 53.0872V57.83H65.0882Z" fill="#13276D"/>
<path d="M76.7084 57.83V51.9016H77.7545V56.2192L81.2959 51.9016H82.2439V57.83H81.1978V53.5123L77.6673 57.83H76.7084Z" fill="#13276D"/>
<path d="M85.8675 57.9083C86.376 57.9083 86.8264 57.8337 87.2187 57.6846C87.6182 57.528 87.9342 57.3154 88.1667 57.047C88.3991 56.7711 88.5154 56.4541 88.5154 56.0962C88.5154 55.6488 88.3301 55.2946 87.9596 55.0336C87.5892 54.7726 87.0806 54.6421 86.4341 54.6421L86.3905 54.8993C86.7683 54.8993 87.1024 54.8359 87.393 54.7092C87.6836 54.5824 87.9161 54.4109 88.0904 54.1946C88.2647 53.9709 88.3519 53.7174 88.3519 53.434C88.3519 53.0984 88.2357 52.8076 88.0032 52.5615C87.778 52.3154 87.4693 52.129 87.077 52.0022C86.6847 51.868 86.238 51.8084 85.7367 51.8233C85.4026 51.8307 85.0648 51.8829 84.7233 51.9799C84.3892 52.0694 84.0478 52.1999 83.6991 52.3714L83.9824 53.2103C84.2947 53.0537 84.5999 52.9381 84.8977 52.8635C85.2028 52.789 85.5006 52.7479 85.7912 52.7405C86.0891 52.7405 86.3469 52.774 86.5649 52.8412C86.7901 52.9083 86.9644 53.0052 87.0879 53.132C87.2114 53.2588 87.2731 53.4116 87.2731 53.5906C87.2731 53.7547 87.2187 53.9001 87.1097 54.0268C87.008 54.1462 86.8627 54.2356 86.6738 54.2953C86.485 54.355 86.2634 54.3848 86.0091 54.3848H85.0285V55.1566H86.0745C86.5031 55.1566 86.8373 55.2312 87.077 55.3803C87.3167 55.5295 87.4366 55.742 87.4366 56.0179C87.4366 56.2118 87.3712 56.3833 87.2405 56.5324C87.1097 56.6741 86.9208 56.786 86.6738 56.868C86.4341 56.95 86.1472 56.9911 85.813 56.9911C85.4498 56.9911 85.0902 56.9426 84.7342 56.8456C84.3783 56.7412 84.0623 56.5996 83.7862 56.4206L83.4702 57.2371C83.7971 57.4534 84.1676 57.6212 84.5817 57.7405C85.003 57.8523 85.4316 57.9083 85.8675 57.9083Z" fill="#13276D"/>
<path d="M94.0502 57.3266V52.8412H91.544L91.4895 53.9821C91.475 54.355 91.4496 54.7166 91.4133 55.0671C91.3842 55.4101 91.3334 55.7271 91.2607 56.0179C91.1953 56.3087 91.0973 56.5474 90.9665 56.7338C90.8357 56.9202 90.6614 57.0358 90.4435 57.0805L89.4083 56.8904C89.6335 56.8978 89.8151 56.8233 89.9531 56.6667C90.0911 56.5026 90.1965 56.2789 90.2691 55.9955C90.349 55.7122 90.4071 55.3915 90.4435 55.0336C90.4798 54.6682 90.5088 54.2916 90.5306 53.9038L90.6178 51.9016H95.0963V57.3266H94.0502ZM89.1795 59.2058V56.8904H95.9789V59.2058H94.9982V57.83H90.171V59.2058H89.1795Z" fill="#13276D"/>
<path d="M99.9133 57.8971C99.2958 57.8971 98.751 57.7666 98.2788 57.5056C97.8139 57.2446 97.4507 56.8867 97.1891 56.4318C96.9349 55.9769 96.8078 55.4549 96.8078 54.8658C96.8078 54.2767 96.9313 53.7547 97.1782 53.2998C97.4325 52.8449 97.7776 52.4907 98.2134 52.2371C98.6566 51.9761 99.1542 51.8456 99.7063 51.8456C100.266 51.8456 100.76 51.9724 101.188 52.226C101.617 52.4795 101.951 52.8374 102.191 53.2998C102.438 53.7547 102.561 54.2878 102.561 54.8993C102.561 54.9441 102.558 54.9963 102.55 55.0559C102.55 55.1156 102.547 55.1715 102.539 55.2237H97.625V54.4519H101.995L101.57 54.7204C101.577 54.34 101.501 54.0007 101.341 53.7025C101.181 53.4042 100.959 53.173 100.676 53.0089C100.4 52.8374 100.077 52.7517 99.7063 52.7517C99.343 52.7517 99.0198 52.8374 98.7365 53.0089C98.4531 53.173 98.2316 53.4079 98.0718 53.7136C97.9119 54.0119 97.832 54.355 97.832 54.7427V54.9217C97.832 55.3169 97.9192 55.6711 98.0936 55.9843C98.2752 56.2901 98.5258 56.5287 98.8454 56.7002C99.1651 56.8717 99.5319 56.9575 99.946 56.9575C100.287 56.9575 100.596 56.8978 100.872 56.7785C101.156 56.6592 101.402 56.4802 101.613 56.2416L102.191 56.9351C101.929 57.2483 101.602 57.487 101.21 57.651C100.825 57.8151 100.393 57.8971 99.9133 57.8971Z" fill="#13276D"/>
<path d="M103.129 57.8188L103.195 56.9128C103.246 56.9202 103.293 56.9277 103.336 56.9351C103.38 56.9426 103.42 56.9463 103.456 56.9463C103.689 56.9463 103.87 56.8643 104.001 56.7002C104.139 56.5362 104.241 56.3199 104.306 56.0515C104.372 55.7755 104.419 55.4661 104.448 55.123C104.477 54.78 104.499 54.437 104.513 54.094L104.611 51.9016H109.046V57.83H108V52.528L108.251 52.8412H105.287L105.527 52.5168L105.45 54.1611C105.428 54.6831 105.389 55.1715 105.33 55.6264C105.272 56.0813 105.182 56.4802 105.058 56.8233C104.942 57.1663 104.778 57.4348 104.568 57.6286C104.364 57.8225 104.099 57.9195 103.772 57.9195C103.678 57.9195 103.576 57.9083 103.467 57.8859C103.365 57.871 103.253 57.8486 103.129 57.8188Z" fill="#13276D"/>
<path d="M111.069 57.83V51.9016H112.115V56.2192L115.656 51.9016H116.604V57.83H115.558V53.5123L112.028 57.83H111.069Z" fill="#13276D"/>
<path d="M122.329 57.83V55.7494L122.492 55.9508H120.651C119.881 55.9508 119.278 55.783 118.842 55.4474C118.413 55.1119 118.199 54.6234 118.199 53.9821C118.199 53.296 118.428 52.7778 118.885 52.4273C119.35 52.0768 119.968 51.9016 120.738 51.9016H123.266V57.83H122.329ZM118.144 57.83L119.714 55.5593H120.792L119.267 57.83H118.144ZM122.329 55.4139V52.5391L122.492 52.8412H120.77C120.291 52.8412 119.921 52.9344 119.659 53.1208C119.398 53.2998 119.267 53.5981 119.267 54.0157C119.267 54.7912 119.753 55.179 120.727 55.179H122.492L122.329 55.4139Z" fill="#13276D"/>
<path d="M128.233 57.83V51.9016H129.279V56.2192L132.821 51.9016H133.769V57.83H132.723V53.5123L129.192 57.83H128.233Z" fill="#13276D"/>
<path d="M137.392 57.9083C137.901 57.9083 138.351 57.8337 138.743 57.6846C139.143 57.528 139.459 57.3154 139.691 57.047C139.924 56.7711 140.04 56.4541 140.04 56.0962C140.04 55.6488 139.855 55.2946 139.484 55.0336C139.114 54.7726 138.605 54.6421 137.959 54.6421L137.915 54.8993C138.293 54.8993 138.627 54.8359 138.918 54.7092C139.208 54.5824 139.441 54.4109 139.615 54.1946C139.789 53.9709 139.877 53.7174 139.877 53.434C139.877 53.0984 139.76 52.8076 139.528 52.5615C139.303 52.3154 138.994 52.129 138.602 52.0022C138.209 51.868 137.763 51.8084 137.261 51.8233C136.927 51.8307 136.59 51.8829 136.248 51.9799C135.914 52.0694 135.572 52.1999 135.224 52.3714L135.507 53.2103C135.819 53.0537 136.125 52.9381 136.422 52.8635C136.728 52.789 137.025 52.7479 137.316 52.7405C137.614 52.7405 137.872 52.774 138.09 52.8412C138.315 52.9083 138.489 53.0052 138.613 53.132C138.736 53.2588 138.798 53.4116 138.798 53.5906C138.798 53.7547 138.743 53.9001 138.634 54.0268C138.533 54.1462 138.387 54.2356 138.199 54.2953C138.01 54.355 137.788 54.3848 137.534 54.3848H136.553V55.1566H137.599C138.028 55.1566 138.362 55.2312 138.602 55.3803C138.841 55.5295 138.961 55.742 138.961 56.0179C138.961 56.2118 138.896 56.3833 138.765 56.5324C138.634 56.6741 138.446 56.786 138.199 56.868C137.959 56.95 137.672 56.9911 137.338 56.9911C136.975 56.9911 136.615 56.9426 136.259 56.8456C135.903 56.7412 135.587 56.5996 135.311 56.4206L134.995 57.2371C135.322 57.4534 135.692 57.6212 136.106 57.7405C136.528 57.8523 136.956 57.9083 137.392 57.9083Z" fill="#13276D"/>
<path d="M144.557 57.83V51.9016H149.907V57.83H148.861V52.5727L149.112 52.8412H145.352L145.603 52.5727V57.83H144.557Z" fill="#13276D"/>
<path d="M154.503 57.8971C153.885 57.8971 153.34 57.7666 152.868 57.5056C152.403 57.2446 152.04 56.8867 151.779 56.4318C151.524 55.9769 151.397 55.4549 151.397 54.8658C151.397 54.2767 151.521 53.7547 151.768 53.2998C152.022 52.8449 152.367 52.4907 152.803 52.2371C153.246 51.9761 153.744 51.8456 154.296 51.8456C154.855 51.8456 155.349 51.9724 155.778 52.226C156.206 52.4795 156.54 52.8374 156.78 53.2998C157.027 53.7547 157.151 54.2878 157.151 54.8993C157.151 54.9441 157.147 54.9963 157.14 55.0559C157.14 55.1156 157.136 55.1715 157.129 55.2237H152.214V54.4519H156.584L156.159 54.7204C156.166 54.34 156.09 54.0007 155.93 53.7025C155.77 53.4042 155.549 53.173 155.265 53.0089C154.989 52.8374 154.666 52.7517 154.296 52.7517C153.932 52.7517 153.609 52.8374 153.326 53.0089C153.043 53.173 152.821 53.4079 152.661 53.7136C152.501 54.0119 152.421 54.355 152.421 54.7427V54.9217C152.421 55.3169 152.509 55.6711 152.683 55.9843C152.865 56.2901 153.115 56.5287 153.435 56.7002C153.754 56.8717 154.121 56.9575 154.535 56.9575C154.877 56.9575 155.186 56.8978 155.462 56.7785C155.745 56.6592 155.992 56.4802 156.203 56.2416L156.78 56.9351C156.519 57.2483 156.192 57.487 155.799 57.651C155.414 57.8151 154.982 57.8971 154.503 57.8971Z" fill="#13276D"/>
<path d="M158.773 57.83V51.9016H159.819V54.4183H163.11V51.9016H164.156V57.83H163.11V55.3468H159.819V57.83H158.773Z" fill="#13276D"/>
<path d="M168.664 57.8971C168.083 57.8971 167.567 57.7666 167.117 57.5056C166.666 57.2446 166.31 56.8867 166.049 56.4318C165.787 55.9694 165.656 55.4474 165.656 54.8658C165.656 54.2767 165.787 53.7547 166.049 53.2998C166.31 52.8449 166.666 52.4907 167.117 52.2371C167.567 51.9761 168.083 51.8456 168.664 51.8456C169.238 51.8456 169.75 51.9761 170.2 52.2371C170.658 52.4907 171.014 52.8449 171.268 53.2998C171.53 53.7472 171.66 54.2692 171.66 54.8658C171.66 55.4549 171.53 55.9769 171.268 56.4318C171.014 56.8867 170.658 57.2446 170.2 57.5056C169.75 57.7666 169.238 57.8971 168.664 57.8971ZM168.664 56.9575C169.034 56.9575 169.365 56.8717 169.655 56.7002C169.953 56.5287 170.186 56.2864 170.353 55.9732C170.52 55.6525 170.603 55.2834 170.603 54.8658C170.603 54.4407 170.52 54.0753 170.353 53.7696C170.186 53.4564 169.953 53.214 169.655 53.0425C169.365 52.871 169.034 52.7852 168.664 52.7852C168.293 52.7852 167.963 52.871 167.672 53.0425C167.382 53.214 167.149 53.4564 166.975 53.7696C166.801 54.0753 166.713 54.4407 166.713 54.8658C166.713 55.2834 166.801 55.6525 166.975 55.9732C167.149 56.2864 167.382 56.5287 167.672 56.7002C167.963 56.8717 168.293 56.9575 168.664 56.9575Z" fill="#13276D"/>
<path d="M173.171 57.83V51.9016H178.521V57.83H177.475V52.5727L177.726 52.8412H173.966L174.217 52.5727V57.83H173.171Z" fill="#13276D"/>
<path d="M179.586 57.8188L179.652 56.9128C179.703 56.9202 179.75 56.9277 179.793 56.9351C179.837 56.9426 179.877 56.9463 179.913 56.9463C180.146 56.9463 180.327 56.8643 180.458 56.7002C180.596 56.5362 180.698 56.3199 180.763 56.0515C180.829 55.7755 180.876 55.4661 180.905 55.123C180.934 54.78 180.956 54.437 180.97 54.094L181.068 51.9016H185.503V57.83H184.457V52.528L184.708 52.8412H181.744L181.984 52.5168L181.907 54.1611C181.886 54.6831 181.846 55.1715 181.788 55.6264C181.729 56.0813 181.639 56.4802 181.515 56.8233C181.399 57.1663 181.235 57.4348 181.025 57.6286C180.821 57.8225 180.556 57.9195 180.229 57.9195C180.135 57.9195 180.033 57.9083 179.924 57.8859C179.823 57.871 179.71 57.8486 179.586 57.8188Z" fill="#13276D"/>
<path d="M191.067 57.83V56.5772L191.013 56.3423V54.2058C191.013 53.7509 190.882 53.4004 190.621 53.1544C190.366 52.9008 189.981 52.774 189.466 52.774C189.124 52.774 188.79 52.8337 188.463 52.953C188.136 53.0649 187.86 53.2177 187.635 53.4116L187.199 52.6063C187.497 52.3602 187.853 52.1738 188.267 52.047C188.688 51.9128 189.128 51.8456 189.585 51.8456C190.377 51.8456 190.987 52.0433 191.416 52.4385C191.845 52.8337 192.059 53.4377 192.059 54.2506V57.83H191.067ZM189.171 57.8971C188.743 57.8971 188.365 57.8225 188.038 57.6734C187.718 57.5242 187.471 57.3192 187.297 57.0582C187.123 56.7897 187.036 56.4877 187.036 56.1521C187.036 55.8315 187.108 55.5406 187.254 55.2796C187.406 55.0186 187.649 54.8098 187.984 54.6532C188.325 54.4966 188.783 54.4183 189.357 54.4183H191.187V55.1902H189.4C188.877 55.1902 188.525 55.2796 188.343 55.4586C188.162 55.6376 188.071 55.8538 188.071 56.1074C188.071 56.3982 188.183 56.6331 188.409 56.8121C188.634 56.9836 188.946 57.0694 189.346 57.0694C189.738 57.0694 190.079 56.9799 190.37 56.8009C190.668 56.6219 190.882 56.3609 191.013 56.0179L191.22 56.7562C191.082 57.1066 190.838 57.3863 190.49 57.5951C190.141 57.7964 189.702 57.8971 189.171 57.8971Z" fill="#13276D"/>
<path d="M196.46 57.8971C195.871 57.8971 195.345 57.7666 194.88 57.5056C194.422 57.2446 194.062 56.8867 193.801 56.4318C193.539 55.9769 193.409 55.4549 193.409 54.8658C193.409 54.2767 193.539 53.7547 193.801 53.2998C194.062 52.8449 194.422 52.4907 194.88 52.2371C195.345 51.9761 195.871 51.8456 196.46 51.8456C196.983 51.8456 197.448 51.9538 197.854 52.17C198.269 52.3788 198.588 52.692 198.813 53.1096L198.018 53.6353C197.829 53.3445 197.597 53.132 197.321 52.9978C197.052 52.8561 196.761 52.7852 196.449 52.7852C196.071 52.7852 195.733 52.871 195.435 53.0425C195.138 53.214 194.901 53.4564 194.727 53.7696C194.553 54.0753 194.466 54.4407 194.466 54.8658C194.466 55.2908 194.553 55.66 194.727 55.9732C194.901 56.2864 195.138 56.5287 195.435 56.7002C195.733 56.8717 196.071 56.9575 196.449 56.9575C196.761 56.9575 197.052 56.8904 197.321 56.7562C197.597 56.6145 197.829 56.3982 198.018 56.1074L198.813 56.6219C198.588 57.0321 198.269 57.349 197.854 57.5727C197.448 57.789 196.983 57.8971 196.46 57.8971Z" fill="#13276D"/>
<path d="M201.237 57.83V52.5615L201.499 52.8412H199.123V51.9016H204.397V52.8412H202.033L202.283 52.5615V57.83H201.237Z" fill="#13276D"/>
<path d="M209.008 57.83V56.5772L208.954 56.3423V54.2058C208.954 53.7509 208.823 53.4004 208.562 53.1544C208.307 52.9008 207.922 52.774 207.407 52.774C207.065 52.774 206.731 52.8337 206.404 52.953C206.077 53.0649 205.801 53.2177 205.576 53.4116L205.14 52.6063C205.438 52.3602 205.794 52.1738 206.208 52.047C206.629 51.9128 207.069 51.8456 207.526 51.8456C208.318 51.8456 208.929 52.0433 209.357 52.4385C209.786 52.8337 210 53.4377 210 54.2506V57.83H209.008ZM207.112 57.8971C206.684 57.8971 206.306 57.8225 205.979 57.6734C205.66 57.5242 205.413 57.3192 205.238 57.0582C205.064 56.7897 204.977 56.4877 204.977 56.1521C204.977 55.8315 205.049 55.5406 205.195 55.2796C205.347 55.0186 205.591 54.8098 205.925 54.6532C206.266 54.4966 206.724 54.4183 207.298 54.4183H209.128V55.1902H207.341C206.818 55.1902 206.466 55.2796 206.284 55.4586C206.103 55.6376 206.012 55.8538 206.012 56.1074C206.012 56.3982 206.124 56.6331 206.35 56.8121C206.575 56.9836 206.887 57.0694 207.287 57.0694C207.679 57.0694 208.02 56.9799 208.311 56.8009C208.609 56.6219 208.823 56.3609 208.954 56.0179L209.161 56.7562C209.023 57.1066 208.78 57.3863 208.431 57.5951C208.082 57.7964 207.643 57.8971 207.112 57.8971Z" fill="#13276D"/>
</svg>
