<svg width="75" height="75" viewBox="0 0 75 75" fill="none" xmlns="http://www.w3.org/2000/svg">
<path d="M52.8206 14.9247C52.808 14.8903 52.7987 14.8544 52.783 14.82C52.7281 14.7044 52.6591 14.5934 52.565 14.4981C52.5635 14.4981 52.5619 14.495 52.5603 14.4934L38.3536 0.332825C38.352 0.331263 38.3505 0.331241 38.3473 0.329678C38.2517 0.234368 38.1419 0.16717 38.0243 0.112484C37.9898 0.0968589 37.9523 0.0859422 37.9147 0.0750049C37.8175 0.0421931 37.7202 0.0218898 37.6199 0.0156399C37.5933 0.012515 37.5713 0 37.5462 0H1.14118C0.51102 0 0 0.509359 0 1.13747V73.8625C0 74.4906 0.509453 75 1.14118 75H51.7547C52.3848 75 52.8958 74.4922 52.8958 73.8625V15.2981C52.8958 15.2747 52.8833 15.2559 52.8817 15.2294C52.8739 15.1247 52.8551 15.0231 52.8206 14.9247ZM49.0036 14.1591H38.6875V3.87646L49.0036 14.1591ZM50.6151 72.7235H2.28241V2.27027H36.4083V15.295C36.4083 15.9231 36.9177 16.434 37.5494 16.434H50.6166V72.7235H50.6151Z" fill="#062856"/>
<path d="M68.9303 7.83261L67.717 7.18417V2.30303C67.717 1.87336 67.4741 1.47962 67.0901 1.28744L66.2968 0.889004C65.013 0.24683 63.4831 0.248392 62.2024 0.889004L61.4092 1.28744C61.0236 1.47962 60.7806 1.87336 60.7806 2.30303V7.18264L59.3447 7.95134C58.9763 8.14821 58.7443 8.53261 58.7443 8.95291V43.5662V61.5784C58.7443 61.6987 58.7679 61.8127 58.8039 61.9252C58.8071 61.9361 58.8055 61.9486 58.8086 61.958L63.1759 74.239C63.3373 74.6921 63.7668 74.9952 64.2512 74.9952C64.734 74.9952 65.1635 74.6921 65.3266 74.239L69.6907 61.958C69.6938 61.9471 69.6937 61.9346 69.6969 61.9252C69.7314 61.8143 69.7565 61.6987 69.7565 61.5784V43.5662V10.2685C71.462 10.7638 72.7207 12.32 72.7207 14.1778V34.1305C72.7207 34.757 73.2302 35.2664 73.8603 35.2664C74.4905 35.2664 74.9999 34.7586 74.9999 34.1305V14.1778C74.9968 10.7747 72.3037 7.99667 68.9303 7.83261ZM61.022 59.68V44.2459L63.1712 43.0975C63.8452 42.7381 64.6494 42.7366 65.3266 43.0975L67.4757 44.2459V59.68L66.405 59.1081C65.0554 58.3862 63.4439 58.3862 62.0958 59.1081L61.022 59.68ZM66.4019 41.0944C65.0522 40.3741 63.4407 40.3741 62.0926 41.0944L61.0205 41.6663V9.63101L63.1695 8.48414C63.8436 8.12634 64.6478 8.12478 65.3249 8.48414L67.4741 9.63101V41.6663L66.4019 41.0944ZM63.2245 2.92019C63.864 2.59989 64.629 2.59832 65.2717 2.92019L65.4362 3.00302V6.10139C64.6571 5.89046 63.8374 5.89046 63.0583 6.10139V3.00302L63.2245 2.92019ZM64.248 70.4578L61.2822 62.1189L63.1695 61.1096C63.8436 60.7502 64.6478 60.7502 65.3249 61.1096L67.2123 62.1189L64.248 70.4578Z" fill="#062856"/>
<path d="M43.5485 27.7964H18.7371H9.34578C8.71562 27.7964 8.20618 28.3057 8.20618 28.9339V35.5494V45.0804V45.2585V54.7896C8.20618 55.4161 8.71562 55.9255 9.34578 55.9255H18.7371H43.5485C44.1786 55.9255 44.6896 55.4177 44.6896 54.7896V45.2585V45.0804V35.5494V28.9339C44.6896 28.3057 44.1786 27.7964 43.5485 27.7964ZM10.487 36.6853H17.5975V43.9445H10.487V36.6853ZM19.8782 36.6853H42.4088V43.9445H19.8782V36.6853ZM42.4088 34.4134H19.8782V30.0698H42.4088V34.4134ZM17.5975 30.0698V34.4134H10.487V30.0698H17.5975ZM10.487 53.6521V46.3928H17.5975V53.6521H10.487ZM42.4088 53.6521H19.8782V46.3928H42.4088V53.6521Z" fill="#062856"/>
<path d="M8.2077 22.1137C8.2077 22.7403 8.71724 23.2512 9.3474 23.2512H43.5485C44.1786 23.2512 44.6896 22.7418 44.6896 22.1137C44.6896 21.4856 44.1802 20.9778 43.5485 20.9778H9.3474C8.71724 20.9793 8.2077 21.4872 8.2077 22.1137Z" fill="#062856"/>
<path d="M24.2941 60.4707H9.34578C8.71562 60.4707 8.20618 60.9785 8.20618 61.6066C8.20618 62.2347 8.71562 62.7441 9.34578 62.7441H24.2941C24.9242 62.7441 25.4337 62.2363 25.4337 61.6066C25.4337 60.9785 24.9242 60.4707 24.2941 60.4707Z" fill="#062856"/>
<path d="M43.5485 60.4707H37.7234C37.0932 60.4707 36.5838 60.9785 36.5838 61.6066C36.5838 62.2347 37.0932 62.7441 37.7234 62.7441H43.5485C44.1786 62.7441 44.6896 62.2363 44.6896 61.6066C44.6896 60.9785 44.1786 60.4707 43.5485 60.4707Z" fill="#062856"/>
<path d="M9.3474 16.4325H29.8683C30.4984 16.4325 31.0095 15.9232 31.0095 15.2935C31.0095 14.6669 30.5 14.1576 29.8683 14.1576H9.3474C8.71724 14.1576 8.2077 14.6654 8.2077 15.2935C8.2077 15.9232 8.71724 16.4325 9.3474 16.4325Z" fill="#062856"/>
</svg>
