<svg width="74" height="56" viewBox="0 0 74 56" fill="none" xmlns="http://www.w3.org/2000/svg">
<path d="M73.6747 36.164L68.4007 30.8974C69.9053 30.0689 71.1649 29.2065 71.8478 28.5259C74.1804 26.1944 74.1804 22.4015 71.8478 20.0716C70.7163 18.9428 69.2147 18.3192 67.616 18.3192C66.0157 18.3192 64.5141 18.9413 63.3841 20.0716C62.7011 20.7523 61.8393 22.0119 61.0099 23.5134L55.7359 18.2452L37.7955 0.328008C37.3577 -0.109336 36.6485 -0.109336 36.2107 0.328008L30.9366 5.59461C30.1088 4.09316 29.247 2.83657 28.564 2.15284C27.4324 1.02406 25.9293 0.40192 24.3321 0.40192C22.7319 0.40192 21.2303 1.02252 20.1002 2.15284C18.9687 3.28315 18.3458 4.78306 18.3458 6.37998C18.3458 7.9769 18.9687 9.47834 20.1002 10.6071C20.7817 11.2893 22.0428 12.1501 23.5443 12.9786L18.2703 18.2468L11.9124 24.5959C11.655 24.8531 11.5394 25.215 11.5995 25.5738C11.6597 25.9311 11.8893 26.2375 12.2131 26.3961C14.043 27.2862 15.742 28.3534 16.4419 29.0541C17.9003 30.5109 17.9003 32.8839 16.4419 34.3422C14.9819 35.7975 12.6093 35.799 11.1478 34.3422C10.4479 33.6431 9.37795 31.9461 8.48533 30.1197C8.32654 29.7948 8.0213 29.5653 7.66364 29.5068C7.30597 29.4437 6.94213 29.5623 6.68622 29.8179L0.328395 36.1671C0.118728 36.378 0 36.6614 0 36.9601C0 37.2589 0.118728 37.5422 0.328395 37.7517L5.60242 43.0214C4.0993 43.8468 2.83978 44.7076 2.15682 45.3913C1.02678 46.5201 0.403906 48.0231 0.403906 49.6185C0.403906 51.2154 1.02523 52.7168 2.15682 53.8456C3.28686 54.9744 4.78844 55.5981 6.38869 55.5981C7.98739 55.5981 9.49051 54.9759 10.6206 53.8456C11.3035 53.1634 12.1653 51.9037 12.9932 50.4054L18.2672 55.672C18.4861 55.8922 18.7729 56 19.0612 56C19.3479 56 19.6347 55.8922 19.8536 55.672L37 38.5448L41.4816 43.0214C39.9801 43.8468 38.719 44.7091 38.036 45.3913C36.906 46.5201 36.2831 48.0231 36.2831 49.6185C36.2831 51.2169 36.906 52.7168 38.036 53.8456C39.166 54.9744 40.6692 55.5981 42.2679 55.5981C43.8666 55.5981 45.3697 54.9759 46.4998 53.8456C47.1827 53.1634 48.0445 51.9037 48.8724 50.4054L54.1464 55.672C54.3653 55.8922 54.6521 56 54.9404 56C55.2271 56 55.5139 55.8922 55.7328 55.672L73.6717 37.7517C73.8813 37.5422 74 37.2589 74 36.9601C74 36.6614 73.8844 36.375 73.6747 36.164ZM26.2129 13.4807C26.4704 13.2235 26.586 12.8616 26.5259 12.5043C26.4658 12.1471 26.2361 11.8406 25.9124 11.6805C24.0824 10.7904 22.3835 9.72165 21.6851 9.02251C20.979 8.31722 20.589 7.3794 20.589 6.37844C20.589 5.38056 20.979 4.44119 21.6851 3.73436C23.0973 2.32223 25.5639 2.32223 26.9776 3.73436C27.6775 4.43349 28.7459 6.1305 29.6401 7.95841C29.7989 8.28334 30.1057 8.51126 30.4618 8.57131C30.8179 8.63137 31.1818 8.51434 31.4392 8.25871L37.0031 2.70106L53.3556 19.0352L48.0322 24.3542L47.7901 24.5929C47.5342 24.85 47.417 25.2119 47.4772 25.5707C47.5373 25.928 47.767 26.2344 48.0907 26.3931C49.9207 27.2831 51.6196 28.3503 52.3196 29.051C53.778 30.5078 53.778 32.8808 52.3196 34.3392C50.9059 35.7513 48.4392 35.7482 47.0254 34.3392C46.3255 33.64 45.2572 31.943 44.3646 30.1166C44.2058 29.7917 43.9005 29.5623 43.5429 29.5037C43.4812 29.4914 43.4179 29.4868 43.3578 29.4868C43.0634 29.4868 42.7782 29.6023 42.5654 29.8148L42.0551 30.3245L37 35.3725L32.5184 30.8974C34.0231 30.0689 35.2841 29.2065 35.9656 28.5259C38.2966 26.1944 38.2966 22.4015 35.9656 20.0716C33.6284 17.7401 29.8328 17.7417 27.5003 20.0716C26.8173 20.7538 25.9555 22.0119 25.1276 23.5134L20.646 19.0368L26.2129 13.4807ZM19.0642 53.2928L13.5004 47.7351C13.2429 47.4795 12.8745 47.3609 12.523 47.4225C12.1638 47.4826 11.8585 47.712 11.6997 48.0354C10.8071 49.8633 9.74026 51.5603 9.0388 52.2579C7.62355 53.6701 5.1569 53.6701 3.74473 52.2579C3.03865 51.5511 2.65012 50.6133 2.65012 49.6139C2.65012 48.6144 3.03865 47.6766 3.74473 46.9713C4.44465 46.2722 6.14353 45.2035 7.97194 44.3118C8.29723 44.1517 8.52542 43.8468 8.58554 43.4895C8.64721 43.1338 8.5285 42.7703 8.27258 42.5132L2.70874 36.9555L7.19034 32.4805C8.01821 33.9819 8.88 35.2385 9.56296 35.9222C11.9001 38.2552 15.6957 38.2522 18.0282 35.9222C20.3623 33.5892 20.3623 29.7963 18.0282 27.4679C17.3453 26.7842 16.0842 25.9234 14.5811 25.0964L19.0642 20.6198L23.9791 25.5292L24.6281 26.1775C24.8841 26.4346 25.2494 26.5486 25.6056 26.4901C25.9632 26.4316 26.27 26.2021 26.4288 25.8772C27.3214 24.0493 28.3898 22.3523 29.0897 21.6547C30.5512 20.1979 32.9238 20.1979 34.3838 21.6547C35.8422 23.1115 35.8422 25.4845 34.3838 26.9428C33.6854 27.6404 31.9865 28.7091 30.1565 29.6008C29.8313 29.7609 29.6031 30.0658 29.5429 30.4231C29.4813 30.7804 29.6 31.1438 29.8559 31.3994L35.4198 36.9571L19.0642 53.2928ZM54.9435 53.2928L49.3796 47.7351C49.1221 47.4795 48.7567 47.3609 48.4022 47.4225C48.0445 47.4826 47.7377 47.712 47.5789 48.0354C46.6863 49.8633 45.6195 51.5603 44.918 52.2579C43.5043 53.6701 41.0376 53.6701 39.6239 52.2579C38.9178 51.5511 38.5293 50.6133 38.5293 49.6139C38.5293 48.6144 38.9178 47.6766 39.6239 46.9713C40.3238 46.2722 42.0243 45.2035 43.8512 44.3118C44.1765 44.1517 44.4062 43.8468 44.4648 43.4895C44.5264 43.1338 44.4077 42.7703 44.1518 42.5132L38.5879 36.9555L43.0696 32.4805C43.8974 33.9819 44.7592 35.2385 45.4422 35.9222C46.5722 37.0495 48.0754 37.6731 49.6756 37.6731C51.2759 37.6731 52.7774 37.051 53.9075 35.9222C56.24 33.5892 56.24 29.7963 53.9075 27.4679C53.2245 26.7842 51.9649 25.9234 50.4618 25.0964L54.9435 20.6198L60.5074 26.1775C60.7633 26.4346 61.1271 26.5486 61.4832 26.4901C61.8409 26.4316 62.1477 26.2021 62.3065 25.8772C63.1991 24.0493 64.2674 22.3523 64.9674 21.6547C66.3811 20.2425 68.8462 20.2425 70.2615 21.6547C71.7199 23.1115 71.7199 25.4845 70.2615 26.9428C69.5631 27.6404 67.8626 28.7091 66.0327 29.6008C65.7074 29.7609 65.4777 30.0658 65.4191 30.4231C65.3574 30.7804 65.4761 31.1438 65.732 31.3994L71.2959 36.9571L54.9435 53.2928Z" fill="#062856"/>
</svg>
