<svg width="75" height="75" viewBox="0 0 75 75" fill="none" xmlns="http://www.w3.org/2000/svg">
<path d="M68.1827 14.2478H64.2451C64.6873 13.029 64.9295 11.7259 64.9295 10.3774C64.9295 6.01176 62.3732 1.98204 58.4168 0.108579C58.0637 -0.0570481 57.6512 -0.032049 57.3215 0.175766C56.9934 0.385143 56.7934 0.746082 56.7934 1.13515V11.3306C54.7527 12.3337 52.3699 12.3337 50.3307 11.3306V1.13515C50.3307 0.746082 50.1307 0.385143 49.8026 0.175766C49.4729 -0.032049 49.0604 -0.0570481 48.7088 0.108579C46.7869 1.01796 45.2041 2.44454 44.0759 4.16331C39.5289 2.35704 34.3476 2.52423 29.91 4.643L30.4881 1.33359C30.546 1.00077 30.4553 0.661701 30.2381 0.405449C30.0209 0.149196 29.7037 0.000764597 29.3678 0.000764597H18.0519C17.716 0.000764597 17.3972 0.149196 17.1816 0.405449C16.9644 0.661701 16.8754 1.00077 16.9316 1.33359L18.8191 12.1384C18.902 12.6134 19.2754 12.9572 19.7317 13.0431V14.2478H6.81889C3.05944 14.2478 0 17.3072 0 21.0666V23.8635V59.7045C0 63.4624 3.05944 66.5218 6.81889 66.5218H15.755V67.7327C15.755 71.7406 19.0145 75 23.0208 75H24.3974C28.4037 75 31.6632 71.7406 31.6632 67.7327V66.5218H42.3728C42.9946 70.1249 45.3338 73.2937 48.7073 74.8906C49.0588 75.0562 49.4713 75.0328 49.801 74.8234C50.1292 74.6156 50.3292 74.2531 50.3292 73.8625V63.6671C52.3683 62.6655 54.7511 62.6639 56.7918 63.6671V73.8625C56.7918 74.2531 56.9918 74.6156 57.32 74.8234C57.5043 74.9406 57.7153 75 57.9278 75C58.0934 75 58.259 74.9641 58.4153 74.8906C61.7872 73.2937 64.1263 70.1234 64.7482 66.5218H68.1811C71.9406 66.5218 75 63.4624 75 59.7045V23.8635V21.0666C75.0016 17.3072 71.9437 14.2478 68.1827 14.2478ZM68.1827 16.5212C70.689 16.5212 72.7281 18.5603 72.7281 21.0666V23.8635C72.7281 30.7558 67.1202 36.3621 60.2278 36.3621H60.0106V19.726C61.2716 18.8572 62.3091 17.7619 63.1107 16.5212H68.1827ZM47.1135 36.3621H27.6865V16.5212H44.0119C44.815 17.7619 45.851 18.8572 47.1135 19.726V36.3621ZM22.0051 41.745V13.079H25.4146V41.7465H22.0051V41.745ZM43.0275 6.19926C42.5009 7.51334 42.1946 8.92117 42.1946 10.3774C42.1946 11.7243 42.4368 13.0275 42.879 14.2478H27.6865V13.0431C28.1443 12.9572 28.5193 12.6134 28.6006 12.1384L29.4131 7.48522C33.5038 4.93519 38.5961 4.50393 43.0275 6.19926ZM28.0162 2.27266L26.5256 10.8056H20.8926L19.402 2.27266H28.0162ZM2.27348 21.0666C2.27348 18.5603 4.31259 16.5212 6.81889 16.5212H19.7317V36.3621H14.7737C7.88141 36.3621 2.27348 30.7558 2.27348 23.8635V21.0666ZM15.755 44.7684V64.2499H6.81889C4.31259 64.2499 2.27348 62.2108 2.27348 59.7045V31.7011C4.88916 35.859 9.50801 38.6356 14.7737 38.6356H19.7317V41.745H18.7785C17.1113 41.745 15.755 43.1028 15.755 44.7684ZM18.0269 67.7327V44.7684C18.0269 44.3544 18.3629 44.02 18.777 44.02H20.8676H22.5723V72.6828C20.0317 72.4515 18.0269 70.3328 18.0269 67.7327ZM29.3912 67.7327C29.3912 70.3328 27.3865 72.4515 24.8458 72.6812V44.0184H26.5506H28.6412C29.0537 44.0184 29.3897 44.3544 29.3897 44.7669V67.7327H29.3912ZM28.6412 41.745H27.6865V38.6356H47.1135V55.2732C44.1244 57.3295 42.3337 60.6233 42.2165 64.2483H31.6632V44.7669C31.6632 43.1028 30.3084 41.745 28.6412 41.745ZM59.0669 71.8484V62.9936C59.0669 62.5936 58.8575 62.2249 58.5153 62.0186C55.459 60.1827 51.6636 60.1842 48.6088 62.0186C48.2666 62.2249 48.0573 62.5936 48.0573 62.9936V71.8484C45.8322 70.1453 44.4666 67.4718 44.4666 64.6233C44.4666 61.4327 46.101 58.5326 48.8401 56.8607C49.1776 56.6545 49.3854 56.2873 49.3854 55.8904V19.1088C49.3854 18.7119 49.1792 18.3447 48.8401 18.1385C46.101 16.4681 44.4666 13.5665 44.4666 10.3774C44.4666 7.52741 45.8322 4.85394 48.0573 3.1508V12.0071C48.0573 12.4056 48.2666 12.7759 48.6088 12.9806C51.6636 14.815 55.4605 14.8165 58.5153 12.9806C58.8575 12.7759 59.0669 12.4056 59.0669 12.0071V3.1508C61.2919 4.85394 62.656 7.52584 62.656 10.3774C62.656 13.5665 61.0216 16.4666 58.2825 18.1385C57.945 18.3447 57.7371 18.7119 57.7371 19.1088V55.8904C57.7371 56.2873 57.9434 56.6545 58.2825 56.8607C61.02 58.5311 62.656 61.4327 62.656 64.6233C62.656 67.4718 61.2919 70.1453 59.0669 71.8484ZM72.7296 59.7045C72.7296 62.2108 70.6905 64.2499 68.1842 64.2499H64.9076C64.7904 60.6248 62.9998 57.3311 60.0122 55.2748V38.6371H60.2294C65.4951 38.6371 70.114 35.8605 72.7296 31.7027V59.7045Z" fill="#062856"/>
</svg>
