<svg width="75" height="82" viewBox="0 0 75 82" fill="none" xmlns="http://www.w3.org/2000/svg">
<path d="M48.8273 18.3168C43.4515 18.3168 38.4511 19.9448 34.2903 22.726C32.8526 20.102 30.0713 18.3082 26.865 18.3082H8.47233C3.8009 18.3082 0 22.0973 0 26.7525V47.7667C0 50.4369 2.17977 52.6116 4.85993 52.6116C5.72362 52.6116 6.52392 52.3656 7.22652 51.9709V76.2207C7.22652 79.4068 9.82612 82 13.0221 82C14.8643 82 16.5094 81.139 17.5719 79.798C18.6343 81.139 20.2794 82 22.1216 82C25.3176 82 27.9172 79.4068 27.9172 76.2207V60.0326C32.6966 66.3722 40.2778 70.4978 48.8273 70.4978C63.258 70.4978 75 58.7923 75 44.4081C75 30.0206 63.258 18.3168 48.8273 18.3168ZM8.47233 26.7593C7.78515 26.7593 7.22652 27.3163 7.22652 28.003V47.7667C7.22652 49.0685 6.16403 50.1259 4.85993 50.1259C3.55413 50.1259 2.49338 49.0685 2.49338 47.7667V26.7525C2.49338 23.4657 5.17525 20.7921 8.47233 20.7921H16.5145V22.2528C16.5145 22.9378 17.0732 23.4964 17.7621 23.4964C18.451 23.4964 19.0096 22.9395 19.0096 22.2528V20.7921H26.865C29.2556 20.7921 31.3 22.2066 32.2528 24.2344C30.7156 25.4918 29.343 26.9353 28.1263 28.5053V28.003C28.1263 27.318 27.5676 26.7593 26.8787 26.7593C26.877 26.7593 26.8753 26.7611 26.8719 26.7611C26.8685 26.7611 26.8685 26.7593 26.865 26.7593C26.1779 26.7593 25.6192 27.3163 25.6192 28.003V32.3917C23.7342 35.9912 22.6546 40.0741 22.6546 44.4081C22.6546 45.4109 22.7266 46.4001 22.8362 47.3755H9.71987V28.003C9.71987 27.3163 9.16122 26.7593 8.47233 26.7593ZM25.4256 76.2207C25.4256 78.0367 23.9432 79.5144 22.1216 79.5144C20.3 79.5144 18.8177 78.0384 18.8177 76.2207V54.6547C18.8177 53.968 18.2607 53.4111 17.5719 53.4111C16.8847 53.4111 16.3243 53.9663 16.3243 54.6547V76.2207C16.3243 78.0367 14.842 79.5144 13.0221 79.5144C11.2005 79.5144 9.71817 78.0384 9.71817 76.2207V49.8577H23.2372C23.7016 52.029 24.4539 54.0876 25.4238 56.0197V76.2207H25.4256ZM48.8273 68.0139C35.7692 68.0139 25.1479 57.4256 25.1479 44.4099C25.1479 31.3924 35.7709 20.8041 48.8273 20.8041C61.8836 20.8041 72.5066 31.3924 72.5066 44.4099C72.5066 57.4239 61.8836 68.0139 48.8273 68.0139Z" fill="#062856"/>
<path d="M48.8274 24.5283C37.8308 24.5283 28.8873 33.4458 28.8873 44.4082C28.8873 55.3689 37.8325 64.2881 48.8274 64.2881C59.8222 64.2881 68.7675 55.3689 68.7675 44.4082C68.7675 33.4458 59.8222 24.5283 48.8274 24.5283ZM48.8274 61.8024C39.2069 61.8024 31.3789 54.0005 31.3789 44.4082C31.3789 34.8159 39.2052 27.0122 48.8274 27.0122C58.4496 27.0122 66.2759 34.8142 66.2759 44.4082C66.2741 53.9988 58.4479 61.8024 48.8274 61.8024Z" fill="#062856"/>
<path d="M53.2296 39.2917C53.2296 39.9767 53.7865 40.5353 54.4754 40.5353C55.1643 40.5353 55.7213 39.9784 55.7213 39.2917C55.7213 36.1791 53.281 33.5858 50.073 33.0443V31.3633C50.073 30.6782 49.5161 30.1196 48.8272 30.1196C48.1383 30.1196 47.5814 30.6765 47.5814 31.3633V33.0443C44.3734 33.5858 41.9332 36.1791 41.9332 39.2917C41.9332 42.0985 43.4515 45.071 47.5814 45.5698V53.2197C45.7632 52.7448 44.4265 51.2756 44.4265 49.5246C44.4265 48.8395 43.8679 48.2826 43.1807 48.2826C42.4918 48.2826 41.9332 48.8378 41.9332 49.5246C41.9332 52.6372 44.3734 55.2304 47.5814 55.7737V57.453C47.5814 58.138 48.1383 58.6966 48.8272 58.6966C49.5161 58.6966 50.073 58.1397 50.073 57.453V55.7737C53.281 55.2304 55.7213 52.6372 55.7213 49.5246C55.7213 46.7178 54.203 43.7453 50.073 43.2482V35.5965C51.8895 36.0715 53.2296 37.5406 53.2296 39.2917ZM47.5814 43.0671C45.0109 42.6366 44.4265 40.8343 44.4265 39.2917C44.4265 37.5406 45.7649 36.0715 47.5814 35.5965V43.0671ZM53.2296 49.5229C53.2296 51.2739 51.8912 52.7431 50.073 53.218V45.7457C52.6435 46.1797 53.2296 47.9803 53.2296 49.5229Z" fill="#062856"/>
<path d="M17.548 15.1051C21.7259 15.1051 25.1224 11.7175 25.1224 7.55084C25.1224 3.38593 21.7259 0 17.548 0C13.3701 0 9.97363 3.38593 9.97363 7.55084C9.97192 11.7158 13.3701 15.1051 17.548 15.1051ZM17.548 2.48392C20.3498 2.48392 22.629 4.75601 22.629 7.55084C22.629 10.3457 20.3498 12.6195 17.548 12.6195C14.7445 12.6195 12.4653 10.3457 12.4653 7.55084C12.4653 4.75601 14.7445 2.48392 17.548 2.48392Z" fill="#062856"/>
<path d="M17.762 43.0022C18.4509 43.0022 19.0095 42.4453 19.0095 41.7569V27.0618C19.0095 26.3767 18.4509 25.8181 17.762 25.8181C17.0731 25.8181 16.5145 26.375 16.5145 27.0618V41.7569C16.5162 42.4453 17.0731 43.0022 17.762 43.0022Z" fill="#062856"/>
</svg>
