<svg width="75" height="76" viewBox="0 0 75 76" fill="none" xmlns="http://www.w3.org/2000/svg">
<path d="M75 36.6692C75 16.4496 58.5294 0 38.284 0C37.1362 0 35.9789 0.052272 34.8437 0.159941C34.2191 0.216942 33.7593 0.771107 33.818 1.39337C33.8766 2.0188 34.422 2.48273 35.0546 2.41781C36.12 2.31806 37.2075 2.26899 38.2856 2.26899C57.2786 2.26899 72.7298 17.7004 72.7298 36.6692C72.7298 54.3174 59.2476 69.1076 41.8178 70.881L41.8131 68.0784L34.9499 72.0479L41.8226 76L41.8194 73.1579C60.5096 71.3734 75 55.5572 75 36.6692Z" fill="#062856"/>
<path d="M27.0341 1.76843C25.8656 1.76843 24.7178 1.91886 23.6001 2.15794C23.5985 2.15794 23.5985 2.15794 23.5969 2.15794C23.5621 2.15794 23.5319 2.17536 23.497 2.17853C22.0099 2.50945 20.5815 3.02247 19.2783 3.75557C7.38792 10.4437 0 23.0536 0 36.669C0 50.2828 7.38631 62.8943 19.2752 69.5793C20.5894 70.3203 22.0322 70.8365 23.5351 71.1658C23.5573 71.1674 23.5763 71.1785 23.5985 71.1785H23.6001C24.7194 71.4176 25.8672 71.568 27.0356 71.568C29.558 71.568 31.6095 69.5175 31.6095 67V58.1157C31.6095 55.5966 29.558 53.5461 27.0356 53.5461H23.5985C19.4892 53.5461 16.1472 50.2099 16.1472 46.1058V26.1396C16.1472 24.1699 16.905 22.425 18.2811 21.2264C19.6556 20.0262 21.49 19.5085 23.4463 19.7808C23.4971 19.7856 23.5478 19.7903 23.6001 19.7903H27.0372C29.5596 19.7903 31.6111 17.7399 31.6111 15.2223V6.33801C31.6063 3.81887 29.5564 1.76843 27.0341 1.76843ZM29.3344 58.1157V67C29.3344 68.2667 28.3024 69.2974 27.0341 69.2974C26.2541 69.2974 25.4883 69.2103 24.7336 69.0868V55.8151H27.0341C28.3024 55.8151 29.3344 56.8474 29.3344 58.1157ZM16.7829 19.5164C14.9058 21.152 13.8722 23.5049 13.8722 26.1396V46.1058C13.8722 51.076 17.6327 55.1785 22.4602 55.7454V68.5105C21.7436 68.2603 21.0429 67.9721 20.3881 67.6048C9.21426 61.3188 2.27184 49.4658 2.27184 36.6706C2.27184 23.8738 9.21428 12.0207 20.3913 5.73477C21.0445 5.36743 21.7436 5.07924 22.4586 4.83065V17.4533C20.3326 17.4469 18.3477 18.1515 16.7829 19.5164ZM29.3344 15.2223C29.3344 16.489 28.3024 17.5198 27.0341 17.5198H24.7336V4.24955C25.4899 4.12446 26.2541 4.03737 27.0341 4.03737C28.3024 4.03737 29.3344 5.06818 29.3344 6.33646V15.2223Z" fill="#062856"/>
<path d="M39.6632 40.6354L50.3773 52.0609C50.6009 52.2985 50.9036 52.4204 51.2064 52.4204C51.4855 52.4204 51.7645 52.319 51.9833 52.1132C52.4431 51.6857 52.4653 50.9668 52.0356 50.5108L41.3295 39.0916C41.7782 38.3886 42.0461 37.5605 42.0461 36.669C42.0461 34.9273 41.0504 33.4326 39.6093 32.671L44.2894 12.7713C44.4321 12.1601 44.0547 11.5489 43.4428 11.4064C42.8324 11.2671 42.2204 11.6408 42.0762 12.2519L37.3977 32.1406C34.9404 32.196 32.9554 34.2022 32.9554 36.6706C32.9554 39.1739 34.9943 41.2085 37.5008 41.2085C38.2871 41.207 39.0164 40.9885 39.6632 40.6354ZM35.2273 36.669C35.2273 35.4182 36.2467 34.3969 37.5008 34.3969C38.7548 34.3969 39.7742 35.4182 39.7742 36.669C39.7742 37.9199 38.7548 38.9396 37.5008 38.9396C36.2467 38.9396 35.2273 37.9199 35.2273 36.669Z" fill="#062856"/>
</svg>
