<svg width="75" height="73" viewBox="0 0 75 73" fill="none" xmlns="http://www.w3.org/2000/svg">
<path d="M57.5868 2.26776C62.1745 2.26776 65.9074 5.99375 65.9074 10.5714V25.9107C65.9074 26.5376 66.4153 27.0461 67.0434 27.0461C67.6716 27.0461 68.1809 26.5392 68.1809 25.9107V10.5714C68.1809 4.7429 63.4292 0 57.5883 0H10.5926C4.75175 0 0 4.7429 0 10.5714V54.4758C0 55.1028 0.50938 55.6113 1.13597 55.6113C1.76412 55.6113 2.27356 55.1044 2.27356 54.4758V10.5714C2.27356 5.99219 6.0065 2.26776 10.5942 2.26776H57.5868Z" fill="#062856"/>
<path d="M75 47.8973C75 45.5905 73.9843 43.8328 72.6343 42.8346C73.7 41.7257 74.5406 39.9508 74.5406 37.5942C74.5406 34.0694 71.7374 30.9781 68.5404 30.9781H51.3021C51.81 28.7338 52.4053 24.9547 52.0162 20.6376C51.3615 13.3539 47.7379 8.14153 43.2049 7.96217C39.1204 7.80309 37.4875 8.71553 37.3141 8.82158C36.9062 9.07113 36.6968 9.54837 36.7937 10.0163C37.2891 12.4509 38.4141 19.2681 37.6766 21.5484C36.2937 25.8203 32.9436 29.9362 29.9872 33.564C26.9996 37.2323 24.6417 40.127 24.6417 42.6365V66.4276C24.6417 67.0531 25.1511 67.5615 25.7777 67.5615C26.4058 67.5615 26.9152 67.0546 26.9152 66.4276V42.6365C26.9152 40.9334 29.2637 38.0496 31.7513 34.9958C34.8327 31.212 38.325 26.9214 39.8392 22.2456C40.7251 19.5021 39.6767 13.0576 39.2048 10.5247C39.9095 10.3485 41.1611 10.1519 43.1127 10.2299C46.4176 10.3609 49.2083 14.8231 49.749 20.8434C50.2084 25.9263 49.2036 30.2029 48.7505 31.8047C48.652 32.1462 48.7223 32.5144 48.9364 32.7982C49.152 33.0821 49.488 33.2474 49.8427 33.2474H68.5388C70.2982 33.2474 72.2671 35.1065 72.2671 37.5957C72.2671 40.7306 70.4389 41.8957 69.9717 41.9097C69.3451 41.9128 68.8388 42.4213 68.8388 43.0467C68.8404 43.6722 69.3467 44.179 69.9748 44.1806C71.0842 44.1821 72.728 45.3659 72.728 47.9019C72.728 49.4772 71.9983 50.9214 70.7248 51.8619C70.4639 52.0553 70.2982 52.3501 70.2686 52.6729C70.2389 52.9942 70.3498 53.3124 70.5717 53.551C71.4389 54.4743 71.917 55.6722 71.917 56.9246C71.917 59.2313 70.2685 61.2558 67.9981 61.7409C67.6466 61.8157 67.3513 62.0496 67.2013 62.3771C67.0513 62.7031 67.0669 63.0806 67.2387 63.3956C67.6466 64.1349 67.8607 64.9646 67.8607 65.7928C67.8607 68.3506 65.9403 70.4624 63.348 70.7104C63.273 70.7213 63.1995 70.7307 63.1229 70.7307H59.44C58.8118 70.7307 58.3024 71.2376 58.3024 71.8646C58.3024 72.4915 58.8103 73 59.44 73H63.1229C63.2995 73 63.4761 72.9844 63.6073 72.9673C67.3262 72.6101 70.1326 69.5282 70.1326 65.7944C70.1326 65.0349 70.0092 64.2753 69.7717 63.55C72.3968 62.4411 74.189 59.838 74.189 56.9261C74.189 55.4866 73.7593 54.097 72.9593 52.9147C74.2531 51.5734 75 49.7704 75 47.8973Z" fill="#062856"/>
<path d="M16.6491 40.1895H10.3114C8.38471 40.1895 6.81747 41.7538 6.81747 43.6753V66.5711C6.81747 67.1965 7.32687 67.7049 7.95502 67.7049C8.58317 67.7049 9.09098 67.1981 9.09098 66.5711V43.6753C9.09098 43.0031 9.63947 42.4587 10.3129 42.4587H16.6507C17.3242 42.4587 17.8711 43.0046 17.8711 43.6753V69.5064C17.8711 70.1786 17.3226 70.7244 16.6507 70.7244H13.4818C12.8552 70.7244 12.3458 71.2314 12.3458 71.8583C12.3458 72.4853 12.8552 72.9937 13.4818 72.9937H16.6507C18.5758 72.9937 20.143 71.4294 20.143 69.5079V43.6768C20.1414 41.7537 18.5742 40.1895 16.6491 40.1895Z" fill="#062856"/>
<path d="M13.4803 67.9232C14.2285 67.9232 14.835 67.3178 14.835 66.571C14.835 65.8242 14.2285 65.2188 13.4803 65.2188C12.7321 65.2188 12.1255 65.8242 12.1255 66.571C12.1255 67.3178 12.7321 67.9232 13.4803 67.9232Z" fill="#062856"/>
<path d="M51.0584 70.726H32.9498C32.3232 70.726 31.8138 71.2328 31.8138 71.8598C31.8138 72.4868 32.3232 72.9953 32.9498 72.9953H51.0584C51.6865 72.9953 52.1959 72.4884 52.1959 71.8598C52.1959 71.2328 51.6881 70.726 51.0584 70.726Z" fill="#062856"/>
<path d="M56.9821 41.7599C56.4383 41.4402 55.7429 41.6227 55.4273 42.1639L52.6303 46.9271C50.7677 45.4033 48.3895 44.4893 45.8003 44.4893C39.847 44.4893 35.0046 49.3227 35.0046 55.2635C35.0046 61.2042 39.847 66.0392 45.8003 66.0392C51.7537 66.0392 56.5961 61.2042 56.5961 55.2635C56.5961 52.7524 55.7242 50.4442 54.2772 48.61L57.3883 43.3134C57.7055 42.7722 57.5243 42.0765 56.9821 41.7599ZM54.3241 55.2635C54.3241 59.9565 50.5005 63.7715 45.8003 63.7715C41.1017 63.7715 37.2781 59.9565 37.2781 55.2635C37.2781 50.572 41.1017 46.7571 45.8003 46.7571C47.9739 46.7571 49.9521 47.579 51.46 48.9203L46.7269 56.9776L42.9689 51.0009C42.6346 50.4722 41.9345 50.3115 41.4017 50.6437C40.872 50.9775 40.711 51.6779 41.0439 52.2081L45.7972 59.7678C46.005 60.0984 46.3691 60.298 46.7598 60.298C46.7645 60.298 46.7707 60.298 46.7785 60.298C47.1738 60.2902 47.5395 60.0798 47.7395 59.7382L53.0147 50.7561C53.8397 52.0646 54.3241 53.6056 54.3241 55.2635Z" fill="#062856"/>
</svg>
