<svg width="24" height="24" viewBox="0 0 24 24" fill="none" xmlns="http://www.w3.org/2000/svg">
<rect x="5" y="15" width="14" height="4" rx="2" fill="#7E869E" fill-opacity="0.25"/>
<path d="M12 14L11.5757 14.4243L12 14.8485L12.4243 14.4243L12 14ZM12.6 5C12.6 4.66863 12.3314 4.4 12 4.4C11.6686 4.4 11.4 4.66863 11.4 5L12.6 5ZM6.57574 9.42426L11.5757 14.4243L12.4243 13.5757L7.42426 8.57574L6.57574 9.42426ZM12.4243 14.4243L17.4243 9.42426L16.5757 8.57574L11.5757 13.5757L12.4243 14.4243ZM12.6 14L12.6 5L11.4 5L11.4 14L12.6 14Z" fill="#093F89"/>
<path d="M7 19V18.4V19ZM17 19V19.6V19ZM7 19.6L17 19.6V18.4L7 18.4V19.6ZM5.6 17V16H4.4V17H5.6ZM19.6 17V16H18.4V17H19.6ZM17 19.6C18.4359 19.6 19.6 18.4359 19.6 17H18.4C18.4 17.7732 17.7732 18.4 17 18.4V19.6ZM7 18.4C6.2268 18.4 5.6 17.7732 5.6 17H4.4C4.4 18.4359 5.56406 19.6 7 19.6V18.4Z" fill="#093F89"/>
</svg>
