<svg width="22" height="22" viewBox="0 0 22 22" fill="none" xmlns="http://www.w3.org/2000/svg">
<path d="M0 11C0 17.0751 4.92487 22 11 22C17.0751 22 22 17.0751 22 11C22 4.92487 17.0751 0 11 0C4.92487 0 0 4.92487 0 11Z" fill="#0088CC"/>
<path d="M5.56869 10.7995C8.52148 9.51297 10.4905 8.66484 11.4756 8.25507C14.2886 7.08509 14.8731 6.88185 15.254 6.87507C15.3378 6.87366 15.5252 6.89443 15.6465 6.9929C15.749 7.07605 15.7772 7.18837 15.7907 7.2672C15.8042 7.34604 15.821 7.52562 15.8076 7.66594C15.6552 9.26756 14.9956 13.1543 14.6601 14.9481C14.5181 15.7072 14.2385 15.9617 13.9678 15.9866C13.3796 16.0407 12.933 15.5978 12.3633 15.2244C11.4718 14.64 10.9682 14.2762 10.1028 13.706C9.10279 13.047 9.75108 12.6848 10.321 12.0928C10.4701 11.9379 13.0618 9.58063 13.112 9.36678C13.1182 9.34004 13.124 9.24035 13.0648 9.18771C13.0056 9.13507 12.9182 9.15307 12.8551 9.16738C12.7657 9.18768 11.3416 10.129 8.58268 11.9913C8.17844 12.2689 7.81229 12.4041 7.48423 12.397C7.12258 12.3892 6.4269 12.1926 5.90974 12.0244C5.27541 11.8183 4.77126 11.7092 4.81516 11.3591C4.83803 11.1767 5.08921 10.9901 5.56869 10.7995Z" fill="white"/>
</svg>
