<svg width="22" height="22" viewBox="0 0 22 22" fill="none" xmlns="http://www.w3.org/2000/svg">
<path d="M11 0C4.92474 0 0 4.92474 0 11C0 17.0753 4.92474 22 11 22C17.0753 22 22 17.0753 22 11C22 4.92474 17.0753 0 11 0ZM16.9118 15.1743C16.4423 15.4679 14.5347 15.5554 14.0729 15.2198C13.8196 15.0359 13.588 14.8057 13.368 14.5864C13.2141 14.4332 13.0394 14.3589 12.9071 14.1925C12.7992 14.0565 12.7251 13.8958 12.6114 13.7614C12.4196 13.536 12.1243 13.3442 11.8908 13.6196C11.539 14.0341 11.9461 14.8479 11.4771 15.1574C11.3198 15.2613 11.1611 15.2913 10.9645 15.2766L10.5291 15.2963C10.2734 15.3013 9.8683 15.3037 9.57734 15.2513C9.25277 15.1927 8.98468 15.0154 8.6911 14.8853C8.13395 14.6381 7.60325 14.3014 7.19933 13.8351C6.10004 12.5649 4.62353 10.8182 4.04993 9.22132C3.93198 8.89318 3.62028 8.24333 3.91577 7.96189C4.31755 7.66997 6.28949 7.58776 6.59714 8.0391C6.72201 8.22259 6.80089 8.49092 6.8893 8.69896C6.99939 8.95823 7.05897 9.20249 7.23102 9.43197C7.3833 9.63548 7.49554 9.84019 7.61326 10.0632C7.74551 10.3137 7.87039 10.5539 8.03124 10.7843C8.14038 10.9411 8.42896 11.2531 8.61127 11.2762C9.05641 11.3331 9.02877 10.2515 8.99565 9.98746C8.96395 9.73295 8.95585 9.46295 8.96419 9.20487C8.97134 8.98468 8.99112 8.67441 8.86077 8.49474C8.6482 8.20162 8.1747 8.42086 8.13776 8.02695C8.21592 7.91519 8.19948 7.81605 8.7216 7.644C9.13291 7.50888 9.39861 7.51317 9.6698 7.53486C10.2227 7.57918 10.8089 7.42953 11.3427 7.60873C11.8526 7.78055 11.7738 8.50522 11.7566 8.93941C11.7335 9.53206 11.7583 10.1107 11.7566 10.7124C11.7559 10.9862 11.7449 11.2528 12.079 11.2304C12.3922 11.2097 12.4241 10.9461 12.5735 10.7288C12.7813 10.4257 12.9722 10.1183 13.1838 9.81636C13.469 9.40815 13.5553 8.94941 13.8239 8.5312C13.9199 8.38178 14.0026 8.06341 14.1506 7.94521C14.2626 7.85537 14.4754 7.90232 14.611 7.90232H14.9334C15.18 7.90232 15.4317 7.90041 15.6852 7.90923C16.0503 7.92186 16.4593 7.83798 16.8212 7.88921C18.3833 8.10964 14.8579 11.449 15.0414 12.0452C15.1681 12.457 15.9724 12.9171 16.2627 13.2543C16.648 13.7035 17.8342 14.5964 16.9118 15.1743Z" fill="#4C75A3"/>
</svg>
